<?xml version="1.0" encoding="UTF-8" standalone="no"?><!DOCTYPE svg PUBLIC "-//W3C//DTD SVG 1.1//EN" "http://www.w3.org/Graphics/SVG/1.1/DTD/svg11.dtd"><svg width="100%" height="100%" viewBox="0 0 80 80" version="1.1" xmlns="http://www.w3.org/2000/svg" xmlns:xlink="http://www.w3.org/1999/xlink" xml:space="preserve" style="fill-rule:evenodd;clip-rule:evenodd;stroke-linejoin:round;stroke-miterlimit:1.41421;"><g id="Ebene.2e..-1"><circle id="path3360.2e.2e.2e..2e..-2" cx="40" cy="39.998" r="40" style="fill:#0077be;"/><path id="rect4142.2e.2e.2e..2e..-1.2e.2e.2e..2e..-6.2e.2e.2e..2e..-0" d="M51.307,59.722c-0.589,0 -1.178,-0.223 -1.63,-0.677c-0.903,-0.908 -0.903,-2.362 0,-3.262l15.764,-15.785l-15.764,-15.781c-0.903,-0.904 -0.903,-2.358 0,-3.263c0.903,-0.904 2.357,-0.904 3.26,0l17.385,17.406c0.453,0.454 0.68,1.046 0.678,1.638c0.002,0.593 -0.225,1.185 -0.678,1.639l-17.385,17.408c-0.452,0.454 -1.041,0.677 -1.63,0.677l0,0Z" style="fill:#fff;fill-rule:nonzero;"/><path id="rect4142.2e.2e.2e..2e..-1.2e.2e.2e..2e..-6.2e.2e.2e..2e..-01" d="M28.693,59.721c0.589,0 1.178,-0.223 1.63,-0.676c0.903,-0.908 0.903,-2.362 0,-3.262l-15.763,-15.785l15.763,-15.781c0.903,-0.904 0.903,-2.358 0,-3.263c-0.903,-0.904 -2.357,-0.904 -3.259,0l-17.386,17.406c-0.453,0.454 -0.68,1.046 -0.678,1.638c-0.002,0.593 0.225,1.185 0.678,1.639l17.386,17.408c0.451,0.453 1.04,0.676 1.629,0.676Z" style="fill:#fff;fill-rule:nonzero;"/></g></svg>